<svg width="20" height="21" viewBox="0 0 20 21" fill="none" xmlns="http://www.w3.org/2000/svg">
<path d="M9.16667 14.8333C9.16667 15.7174 8.81548 16.5652 8.19036 17.1903C7.56523 17.8155 6.71739 18.1667 5.83333 18.1667C4.94928 18.1667 4.10143 17.8155 3.47631 17.1903C2.85119 16.5652 2.5 15.7174 2.5 14.8333V4.83332C2.5 4.3913 2.67559 3.96737 2.98816 3.65481C3.30072 3.34225 3.72464 3.16666 4.16667 3.16666H7.5C7.94203 3.16666 8.36595 3.34225 8.67851 3.65481C8.99107 3.96737 9.16667 4.3913 9.16667 4.83332V14.8333Z" stroke="white" stroke-width="2" stroke-linecap="round" stroke-linejoin="round"/>
<path d="M13.9167 11.5H15.8333C16.2754 11.5 16.6993 11.6756 17.0119 11.9882C17.3244 12.3007 17.5 12.7246 17.5 13.1667V16.5C17.5 16.942 17.3244 17.366 17.0119 17.6785C16.6993 17.9911 16.2754 18.1667 15.8333 18.1667H5.83334" stroke="white" stroke-width="2" stroke-linecap="round" stroke-linejoin="round"/>
<path d="M5.83334 14.8333H5.84168" stroke="white" stroke-width="2" stroke-linecap="round" stroke-linejoin="round"/>
<path d="M9.16667 7.33332L11.0833 5.41665C11.2694 5.22992 11.4906 5.08181 11.7341 4.98086C11.9776 4.8799 12.2387 4.82809 12.5024 4.8284C12.766 4.82871 13.0269 4.88114 13.2702 4.98266C13.5135 5.08419 13.7344 5.23281 13.92 5.41999L15.5 6.99999C15.6922 7.18483 15.8454 7.40623 15.9508 7.65116C16.0561 7.8961 16.1114 8.15963 16.1135 8.42626C16.1155 8.69288 16.0642 8.95722 15.9625 9.20372C15.8609 9.45023 15.711 9.67392 15.5217 9.86165L8.25 17.1667" stroke="white" stroke-width="2" stroke-linecap="round" stroke-linejoin="round"/>
</svg>
