<svg width="20" height="20" viewBox="0 0 20 20" fill="none" xmlns="http://www.w3.org/2000/svg">
<path d="M10 6.66663C11.3807 6.66663 12.5 5.54734 12.5 4.16663C12.5 2.78591 11.3807 1.66663 10 1.66663C8.61929 1.66663 7.5 2.78591 7.5 4.16663C7.5 5.54734 8.61929 6.66663 10 6.66663Z" stroke="white" stroke-width="2" stroke-linecap="round" stroke-linejoin="round"/>
<path d="M5.41667 6.66663C5.05605 6.67037 4.70637 6.79098 4.42012 7.01036C4.13388 7.22974 3.92652 7.53604 3.82917 7.88329L1.75 15.4166C1.687 15.6604 1.68007 15.9154 1.72974 16.1622C1.7794 16.4091 1.88436 16.6415 2.03673 16.842C2.18911 17.0425 2.38494 17.2059 2.60951 17.3198C2.83408 17.4338 3.08155 17.4954 3.33333 17.5H16.6667C16.9239 17.4999 17.1776 17.4402 17.4079 17.3257C17.6383 17.2112 17.839 17.045 17.9944 16.84C18.1497 16.635 18.2555 16.3968 18.3035 16.1441C18.3515 15.8914 18.3403 15.631 18.2708 15.3833L16.1667 7.91663C16.0749 7.56113 15.8683 7.24589 15.579 7.01986C15.2897 6.79383 14.9338 6.66966 14.5667 6.66663H5.41667Z" stroke="white" stroke-width="2" stroke-linecap="round" stroke-linejoin="round"/>
</svg>
